<mxfile host="app.diagrams.net" modified="2023-11-22T16:52:07.439Z" agent="Mozilla/5.0 (Windows NT 10.0; Win64; x64) AppleWebKit/537.36 (KHTML, like Gecko) Chrome/119.0.0.0 Safari/537.36" etag="Fk6U3hr4-MgNFGI4ZBTK" version="22.1.3" type="github">
  <diagram name="Страница — 1" id="soWfxi9TBaKqy3Qwm09B">
    <mxGraphModel dx="1500" dy="807" grid="1" gridSize="10" guides="1" tooltips="1" connect="1" arrows="1" fold="1" page="1" pageScale="1" pageWidth="827" pageHeight="1169" math="0" shadow="0">
      <root>
        <mxCell id="0" />
        <mxCell id="1" parent="0" />
        <mxCell id="ny9yEoj4xEWJXowW4-ns-15" value="" style="edgeStyle=orthogonalEdgeStyle;rounded=0;orthogonalLoop=1;jettySize=auto;html=1;" edge="1" parent="1" source="ny9yEoj4xEWJXowW4-ns-1" target="ny9yEoj4xEWJXowW4-ns-2">
          <mxGeometry relative="1" as="geometry" />
        </mxCell>
        <mxCell id="ny9yEoj4xEWJXowW4-ns-1" value="Beginning" style="ellipse;whiteSpace=wrap;html=1;" vertex="1" parent="1">
          <mxGeometry x="330" y="40" width="120" height="40" as="geometry" />
        </mxCell>
        <mxCell id="ny9yEoj4xEWJXowW4-ns-14" value="" style="edgeStyle=orthogonalEdgeStyle;rounded=0;orthogonalLoop=1;jettySize=auto;html=1;" edge="1" parent="1" source="ny9yEoj4xEWJXowW4-ns-2" target="ny9yEoj4xEWJXowW4-ns-3">
          <mxGeometry relative="1" as="geometry" />
        </mxCell>
        <mxCell id="ny9yEoj4xEWJXowW4-ns-2" value="sum(result, ...)&lt;br&gt;current&lt;br&gt;temp1=result&lt;br&gt;result=0" style="rounded=0;whiteSpace=wrap;html=1;" vertex="1" parent="1">
          <mxGeometry x="330" y="110" width="120" height="60" as="geometry" />
        </mxCell>
        <mxCell id="ny9yEoj4xEWJXowW4-ns-16" value="" style="edgeStyle=orthogonalEdgeStyle;rounded=0;orthogonalLoop=1;jettySize=auto;html=1;" edge="1" parent="1" source="ny9yEoj4xEWJXowW4-ns-3" target="ny9yEoj4xEWJXowW4-ns-4">
          <mxGeometry relative="1" as="geometry" />
        </mxCell>
        <mxCell id="ny9yEoj4xEWJXowW4-ns-3" value="if(va_arg(args))&lt;br&gt;!=-1" style="rhombus;whiteSpace=wrap;html=1;" vertex="1" parent="1">
          <mxGeometry x="350" y="200" width="80" height="80" as="geometry" />
        </mxCell>
        <mxCell id="ny9yEoj4xEWJXowW4-ns-18" value="" style="edgeStyle=orthogonalEdgeStyle;rounded=0;orthogonalLoop=1;jettySize=auto;html=1;" edge="1" parent="1" source="ny9yEoj4xEWJXowW4-ns-4" target="ny9yEoj4xEWJXowW4-ns-5">
          <mxGeometry relative="1" as="geometry" />
        </mxCell>
        <mxCell id="ny9yEoj4xEWJXowW4-ns-4" value="result=result&lt;br&gt;+temp1*current" style="shape=parallelogram;perimeter=parallelogramPerimeter;whiteSpace=wrap;html=1;fixedSize=1;" vertex="1" parent="1">
          <mxGeometry x="450" y="210" width="120" height="60" as="geometry" />
        </mxCell>
        <mxCell id="ny9yEoj4xEWJXowW4-ns-5" value="temp1=current" style="rounded=0;whiteSpace=wrap;html=1;" vertex="1" parent="1">
          <mxGeometry x="450" y="300" width="120" height="60" as="geometry" />
        </mxCell>
        <mxCell id="ny9yEoj4xEWJXowW4-ns-17" value="" style="edgeStyle=orthogonalEdgeStyle;rounded=0;orthogonalLoop=1;jettySize=auto;html=1;" edge="1" parent="1" source="ny9yEoj4xEWJXowW4-ns-6" target="ny9yEoj4xEWJXowW4-ns-7">
          <mxGeometry relative="1" as="geometry" />
        </mxCell>
        <mxCell id="ny9yEoj4xEWJXowW4-ns-6" value="&lt;br&gt;&lt;span style=&quot;color: rgb(0, 0, 0); font-family: Helvetica; font-size: 12px; font-style: normal; font-variant-ligatures: normal; font-variant-caps: normal; font-weight: 400; letter-spacing: normal; orphans: 2; text-align: center; text-indent: 0px; text-transform: none; widows: 2; word-spacing: 0px; -webkit-text-stroke-width: 0px; background-color: rgb(251, 251, 251); text-decoration-thickness: initial; text-decoration-style: initial; text-decoration-color: initial; float: none; display: inline !important;&quot;&gt;sum(result, ...)=result&lt;/span&gt;&lt;br&gt;substract(a,b)=a-b" style="rounded=0;whiteSpace=wrap;html=1;" vertex="1" parent="1">
          <mxGeometry x="210" y="210" width="120" height="60" as="geometry" />
        </mxCell>
        <mxCell id="ny9yEoj4xEWJXowW4-ns-7" value="complex substract(a,b)=a-b" style="rounded=0;whiteSpace=wrap;html=1;" vertex="1" parent="1">
          <mxGeometry x="210" y="300" width="120" height="60" as="geometry" />
        </mxCell>
        <mxCell id="ny9yEoj4xEWJXowW4-ns-24" value="" style="edgeStyle=orthogonalEdgeStyle;rounded=0;orthogonalLoop=1;jettySize=auto;html=1;" edge="1" parent="1" source="ny9yEoj4xEWJXowW4-ns-8" target="ny9yEoj4xEWJXowW4-ns-12">
          <mxGeometry relative="1" as="geometry" />
        </mxCell>
        <mxCell id="ny9yEoj4xEWJXowW4-ns-8" value="Output Task 1: &lt;br&gt;sum(8, 10, 12)" style="shape=parallelogram;perimeter=parallelogramPerimeter;whiteSpace=wrap;html=1;fixedSize=1;" vertex="1" parent="1">
          <mxGeometry x="330" y="380" width="120" height="60" as="geometry" />
        </mxCell>
        <mxCell id="ny9yEoj4xEWJXowW4-ns-26" value="" style="edgeStyle=orthogonalEdgeStyle;rounded=0;orthogonalLoop=1;jettySize=auto;html=1;" edge="1" parent="1" source="ny9yEoj4xEWJXowW4-ns-9" target="ny9yEoj4xEWJXowW4-ns-13">
          <mxGeometry relative="1" as="geometry" />
        </mxCell>
        <mxCell id="ny9yEoj4xEWJXowW4-ns-9" value="Output b) substract(complex1, complex2)" style="shape=parallelogram;perimeter=parallelogramPerimeter;whiteSpace=wrap;html=1;fixedSize=1;" vertex="1" parent="1">
          <mxGeometry x="330" y="620" width="120" height="60" as="geometry" />
        </mxCell>
        <mxCell id="ny9yEoj4xEWJXowW4-ns-11" value="" style="edgeStyle=orthogonalEdgeStyle;rounded=0;orthogonalLoop=1;jettySize=auto;html=1;" edge="1" parent="1" source="ny9yEoj4xEWJXowW4-ns-10" target="ny9yEoj4xEWJXowW4-ns-9">
          <mxGeometry relative="1" as="geometry" />
        </mxCell>
        <mxCell id="ny9yEoj4xEWJXowW4-ns-10" value="complex complex1(4,2)&lt;br&gt;complex&lt;br&gt;complex2(1.5,3)" style="rounded=0;whiteSpace=wrap;html=1;" vertex="1" parent="1">
          <mxGeometry x="330" y="540" width="120" height="60" as="geometry" />
        </mxCell>
        <mxCell id="ny9yEoj4xEWJXowW4-ns-25" value="" style="edgeStyle=orthogonalEdgeStyle;rounded=0;orthogonalLoop=1;jettySize=auto;html=1;" edge="1" parent="1" source="ny9yEoj4xEWJXowW4-ns-12" target="ny9yEoj4xEWJXowW4-ns-10">
          <mxGeometry relative="1" as="geometry" />
        </mxCell>
        <mxCell id="ny9yEoj4xEWJXowW4-ns-12" value="Output Task2: a) substract(10, 5)" style="shape=parallelogram;perimeter=parallelogramPerimeter;whiteSpace=wrap;html=1;fixedSize=1;" vertex="1" parent="1">
          <mxGeometry x="330" y="460" width="120" height="60" as="geometry" />
        </mxCell>
        <mxCell id="ny9yEoj4xEWJXowW4-ns-13" value="End" style="ellipse;whiteSpace=wrap;html=1;" vertex="1" parent="1">
          <mxGeometry x="330" y="710" width="120" height="40" as="geometry" />
        </mxCell>
        <mxCell id="ny9yEoj4xEWJXowW4-ns-19" value="" style="endArrow=classic;html=1;rounded=0;entryX=1;entryY=0.5;entryDx=0;entryDy=0;exitX=0;exitY=0.5;exitDx=0;exitDy=0;" edge="1" parent="1" source="ny9yEoj4xEWJXowW4-ns-3" target="ny9yEoj4xEWJXowW4-ns-6">
          <mxGeometry width="50" height="50" relative="1" as="geometry">
            <mxPoint x="370" y="280" as="sourcePoint" />
            <mxPoint x="420" y="230" as="targetPoint" />
          </mxGeometry>
        </mxCell>
        <mxCell id="ny9yEoj4xEWJXowW4-ns-20" value="" style="endArrow=none;html=1;rounded=0;entryX=0;entryY=0.5;entryDx=0;entryDy=0;" edge="1" parent="1" target="ny9yEoj4xEWJXowW4-ns-5">
          <mxGeometry width="50" height="50" relative="1" as="geometry">
            <mxPoint x="390" y="330" as="sourcePoint" />
            <mxPoint x="420" y="230" as="targetPoint" />
          </mxGeometry>
        </mxCell>
        <mxCell id="ny9yEoj4xEWJXowW4-ns-21" value="" style="endArrow=classic;html=1;rounded=0;entryX=0.5;entryY=1;entryDx=0;entryDy=0;" edge="1" parent="1" target="ny9yEoj4xEWJXowW4-ns-3">
          <mxGeometry width="50" height="50" relative="1" as="geometry">
            <mxPoint x="390" y="330" as="sourcePoint" />
            <mxPoint x="420" y="230" as="targetPoint" />
          </mxGeometry>
        </mxCell>
        <mxCell id="ny9yEoj4xEWJXowW4-ns-22" value="" style="endArrow=none;html=1;rounded=0;exitX=0.5;exitY=1;exitDx=0;exitDy=0;" edge="1" parent="1" source="ny9yEoj4xEWJXowW4-ns-7">
          <mxGeometry width="50" height="50" relative="1" as="geometry">
            <mxPoint x="370" y="280" as="sourcePoint" />
            <mxPoint x="270" y="410" as="targetPoint" />
          </mxGeometry>
        </mxCell>
        <mxCell id="ny9yEoj4xEWJXowW4-ns-23" value="" style="endArrow=classic;html=1;rounded=0;entryX=0;entryY=0.5;entryDx=0;entryDy=0;" edge="1" parent="1" target="ny9yEoj4xEWJXowW4-ns-8">
          <mxGeometry width="50" height="50" relative="1" as="geometry">
            <mxPoint x="270" y="410" as="sourcePoint" />
            <mxPoint x="420" y="230" as="targetPoint" />
          </mxGeometry>
        </mxCell>
        <mxCell id="ny9yEoj4xEWJXowW4-ns-27" value="True" style="text;html=1;strokeColor=none;fillColor=none;align=center;verticalAlign=middle;whiteSpace=wrap;rounded=0;" vertex="1" parent="1">
          <mxGeometry x="414" y="200" width="60" height="30" as="geometry" />
        </mxCell>
        <mxCell id="ny9yEoj4xEWJXowW4-ns-28" value="False" style="text;html=1;strokeColor=none;fillColor=none;align=center;verticalAlign=middle;whiteSpace=wrap;rounded=0;" vertex="1" parent="1">
          <mxGeometry x="320" y="200" width="60" height="30" as="geometry" />
        </mxCell>
      </root>
    </mxGraphModel>
  </diagram>
</mxfile>
